<svg width="47" height="47" viewBox="0 0 47 47" fill="none" xmlns="http://www.w3.org/2000/svg">
<circle cx="23.5" cy="23.5" r="22" fill="#B2D675" stroke="white" stroke-width="3"/>
<path fill-rule="evenodd" clip-rule="evenodd" d="M23.492 13.0367C23.906 13.0367 24.242 13.3727 24.242 13.7867C24.242 14.2007 23.906 14.5367 23.492 14.5367H19.753C17.169 14.5367 15.5 16.3067 15.5 19.0457V27.3597C15.5 30.0987 17.169 31.8687 19.753 31.8687H28.577C31.161 31.8687 32.831 30.0987 32.831 27.3597V23.3317C32.831 22.9177 33.167 22.5817 33.581 22.5817C33.995 22.5817 34.331 22.9177 34.331 23.3317V27.3597C34.331 30.9537 32.018 33.3687 28.577 33.3687H19.753C16.312 33.3687 14 30.9537 14 27.3597V19.0457C14 15.4517 16.312 13.0367 19.753 13.0367H23.492ZM32.2016 13.9153L33.4186 15.1323C34.0116 15.7243 34.3376 16.5113 34.3366 17.3493C34.3366 18.1873 34.0106 18.9733 33.4186 19.5643L25.9096 27.0733C25.3586 27.6243 24.6246 27.9283 23.8446 27.9283H20.0986C19.8966 27.9283 19.7026 27.8463 19.5616 27.7013C19.4206 27.5573 19.3436 27.3623 19.3486 27.1593L19.4426 23.3803C19.4616 22.6283 19.7646 21.9213 20.2966 21.3883L27.7706 13.9153C28.9926 12.6953 30.9796 12.6953 32.2016 13.9153ZM27.155 16.6513L21.3576 22.4493C21.0986 22.7083 20.9516 23.0523 20.9426 23.4173L20.8676 26.4283H23.8446C24.2246 26.4283 24.5806 26.2813 24.8496 26.0123L30.682 20.1783L27.155 16.6513ZM28.8306 14.9763L28.215 15.5903L31.742 19.1183L32.3586 18.5033C32.6666 18.1953 32.8366 17.7853 32.8366 17.3493C32.8366 16.9123 32.6666 16.5013 32.3586 16.1933L31.1416 14.9763C30.5046 14.3413 29.4686 14.3413 28.8306 14.9763Z" fill="#1C2A16"/>
</svg>
