<svg width="120" height="120" viewBox="0 0 120 120" fill="none" xmlns="http://www.w3.org/2000/svg">
<circle cx="60" cy="60" r="60" fill="#B2D675"/>
<path d="M46.0275 52.0769V45.461V45.3993C46.0614 37.6556 52.3661 31.4063 60.1099 31.437C65.4108 31.437 69.337 34.6083 71.5341 39.01C72.2304 40.4049 72.4445 41.9766 72.4445 43.5357V51.1954" stroke="#1C2A16" stroke-width="4" stroke-linecap="round" stroke-linejoin="round"/>
<path fill-rule="evenodd" clip-rule="evenodd" d="M71.8528 88.4458H48.3072C41.8546 88.4458 36.6222 83.2134 36.6222 76.7577V63.5444C36.6222 57.0886 41.8546 51.8563 48.3072 51.8563H71.8528C78.3054 51.8563 83.5378 57.0886 83.5378 63.5444V76.7577C83.5378 83.2134 78.3054 88.4458 71.8528 88.4458Z" stroke="#1C2A16" stroke-width="4" stroke-linecap="round" stroke-linejoin="round"/>
<path d="M65.1082 65.8333C65.1082 64.5492 64.6845 63.301 63.9027 62.2822C63.121 61.2635 62.0249 60.5311 60.7845 60.1988C59.5442 59.8664 58.2288 59.9526 57.0424 60.444C55.856 60.9355 54.8649 61.8046 54.2228 62.9167C54.0021 63.2996 53.9424 63.7544 54.057 64.1813C54.1715 64.6081 54.4508 64.972 54.8336 65.193C55.2164 65.4139 55.6712 65.4738 56.0981 65.3595C56.525 65.2452 56.8891 64.966 57.1102 64.5833C57.3299 64.2036 57.6455 63.8883 58.0254 63.669C58.4054 63.4496 58.8362 63.3339 59.2749 63.3333C59.9379 63.3333 60.5738 63.5967 61.0427 64.0656C61.5115 64.5344 61.7749 65.1703 61.7749 65.8333C61.7749 66.4964 61.5115 67.1323 61.0427 67.6011C60.5738 68.0699 59.9379 68.3333 59.2749 68.3333H59.2708C59.1638 68.3441 59.0581 68.3657 58.9554 68.3978C58.8431 68.4095 58.7322 68.4322 58.6244 68.4656C58.5326 68.5154 58.4458 68.574 58.3652 68.6403C58.2695 68.6924 58.179 68.7537 58.0952 68.8233C58.0202 68.9127 57.9548 69.0097 57.9001 69.1128C57.8393 69.1879 57.7854 69.2683 57.7389 69.353C57.7027 69.4679 57.6788 69.5863 57.6675 69.7062C57.6385 69.8021 57.6187 69.9004 57.6082 70V71.6667L57.6121 71.6856L57.6139 72.5041C57.6151 72.9454 57.7912 73.3682 58.1036 73.6799C58.416 73.9915 58.8393 74.1666 59.2806 74.1667H59.2847C59.7267 74.1656 60.1502 73.9889 60.462 73.6756C60.7738 73.3623 60.9483 72.938 60.9473 72.4959L60.9447 71.3936C62.144 71.0371 63.1965 70.3038 63.9464 69.3023C64.6963 68.3009 65.1037 67.0845 65.1082 65.8333ZM58.1038 77.15C57.8698 77.3821 57.7099 77.6784 57.6442 78.0013C57.5786 78.3243 57.6102 78.6595 57.735 78.9645C57.8598 79.2696 58.0722 79.5307 58.3455 79.7151C58.6187 79.8994 58.9404 79.9985 59.27 80C59.712 79.9964 60.1358 79.8234 60.4541 79.5167C60.7635 79.2005 60.9367 78.7757 60.9367 78.3334C60.9367 77.8911 60.7635 77.4663 60.4541 77.1501C60.135 76.8528 59.7151 76.6874 59.279 76.6874C58.8429 76.6874 58.4229 76.8527 58.1038 77.15Z" fill="#1C2A16"/>
</svg>
