<svg width="120" height="120" viewBox="0 0 120 120" fill="none" xmlns="http://www.w3.org/2000/svg">
<circle cx="60" cy="60" r="60" fill="#B2D675"/>
<mask id="path-2-outside-1_815_2" maskUnits="userSpaceOnUse" x="37" y="32" width="58" height="58" fill="black">
<rect fill="white" x="37" y="32" width="58" height="58"/>
<path d="M90.2969 43.72H67.08V37.7692C67.0805 37.2741 66.9833 36.7837 66.794 36.3262C66.6047 35.8687 66.3271 35.453 65.9769 35.1029C65.6268 34.7528 65.2111 34.4752 64.7536 34.2859C64.296 34.0967 63.8057 33.9995 63.3106 34H42.7689C42.2738 33.9996 41.7835 34.0968 41.3261 34.286C40.8686 34.4753 40.4529 34.7529 40.1028 35.103C39.7528 35.4531 39.4752 35.8688 39.2859 36.3263C39.0967 36.7838 38.9995 37.2741 39 37.7692V84.2308C39.0009 85.2301 39.3982 86.1883 40.1049 86.895C40.8115 87.6016 41.7696 87.999 42.7689 88H63.3105C64.3099 87.9992 65.2682 87.6018 65.9749 86.8951C66.6816 86.1884 67.0791 85.2302 67.08 84.2308V65.32H90.2973C91.0141 65.32 91.7015 65.0352 92.2084 64.5284C92.7152 64.0215 93 63.3341 93 62.6173V46.4231C93 46.0681 92.9301 45.7166 92.7942 45.3887C92.6584 45.0607 92.4593 44.7627 92.2083 44.5117C91.9573 44.2607 91.6593 44.0616 91.3313 43.9258C91.0034 43.7899 90.6519 43.72 90.2969 43.72ZM50.34 36.2896H55.74C56.098 36.2896 56.4414 36.4318 56.6946 36.685C56.9478 36.9382 57.09 37.2816 57.09 37.6396C57.09 37.9976 56.9478 38.341 56.6946 38.5942C56.4414 38.8474 56.098 38.9896 55.74 38.9896H50.34C49.982 38.9896 49.6386 38.8474 49.3854 38.5942C49.1322 38.341 48.99 37.9976 48.99 37.6396C48.99 37.2816 49.1322 36.9382 49.3854 36.685C49.6386 36.4318 49.982 36.2896 50.34 36.2896ZM55.7395 85.7014H50.3395C49.9814 85.7014 49.6381 85.5592 49.3849 85.306C49.1317 85.0528 48.9895 84.7095 48.9895 84.3514C48.9895 83.9934 49.1317 83.65 49.3849 83.3968C49.6381 83.1436 49.9814 83.0014 50.3395 83.0014H55.7395C56.0975 83.0014 56.4409 83.1436 56.6941 83.3968C56.9472 83.65 57.0895 83.9934 57.0895 84.3514C57.0895 84.7095 56.9472 85.0528 56.6941 85.306C56.4409 85.5592 56.0975 85.7014 55.7395 85.7014ZM64.7038 80.71H41.3757V41.29H64.7038V43.72H50.3178C49.6076 43.72 48.9265 44.0021 48.4243 44.5043C47.9221 45.0065 47.64 45.6876 47.64 46.3978V62.6397C47.64 62.9917 47.7093 63.3402 47.844 63.6654C47.9787 63.9906 48.1761 64.2861 48.425 64.535C48.6739 64.7839 48.9694 64.9813 49.2946 65.116C49.6198 65.2507 49.9683 65.32 50.3203 65.32H55.2V69.6579C55.2 69.9218 55.2783 70.1799 55.4249 70.3994C55.5716 70.6189 55.78 70.7899 56.0239 70.8909C56.2678 70.9919 56.5362 71.0184 56.7951 70.9669C57.054 70.9154 57.2918 70.7882 57.4784 70.6016L62.76 65.32H64.7038V80.71ZM61.777 55.5028C62.0868 55.6827 62.3129 55.9778 62.406 56.3238C62.4991 56.6698 62.4515 57.0385 62.2738 57.3496C62.186 57.5043 62.0683 57.6401 61.9276 57.749C61.7869 57.8579 61.626 57.9377 61.4542 57.9839C61.2824 58.0302 61.1031 58.0418 60.9268 58.0182C60.7505 57.9946 60.5806 57.9362 60.427 57.8464L58.71 56.8528V58.84C58.71 59.198 58.5678 59.5414 58.3146 59.7946C58.0614 60.0478 57.718 60.19 57.36 60.19C57.002 60.19 56.6586 60.0478 56.4054 59.7946C56.1522 59.5414 56.01 59.198 56.01 58.84V56.8528L54.2924 57.8464C54.1389 57.9362 53.969 57.9946 53.7926 58.0182C53.6163 58.0418 53.437 58.0302 53.2652 57.9839C53.0934 57.9377 52.9325 57.8579 52.7918 57.749C52.6511 57.6401 52.5335 57.5043 52.4456 57.3496C52.2681 57.0385 52.2208 56.6698 52.3138 56.3239C52.4069 55.978 52.6328 55.6829 52.9424 55.5028L54.66 54.52L52.9424 53.5264C52.6317 53.3474 52.4047 53.0522 52.3116 52.7059C52.2184 52.3596 52.2667 51.9904 52.4457 51.6796C52.6247 51.3689 52.9198 51.142 53.2662 51.0488C53.6125 50.9556 53.9817 51.0039 54.2924 51.1829L56.01 52.1764V50.2C56.01 49.842 56.1522 49.4986 56.4054 49.2454C56.6586 48.9922 57.002 48.85 57.36 48.85C57.718 48.85 58.0614 48.9922 58.3146 49.2454C58.5678 49.4986 58.71 49.842 58.71 50.2V52.1764L60.427 51.1829C60.7378 51.0039 61.107 50.9556 61.4533 51.0488C61.7996 51.142 62.0948 51.3689 62.2738 51.6796C62.4528 51.9904 62.5011 52.3596 62.4079 52.7059C62.3147 53.0522 62.0878 53.3474 61.777 53.5264L60.06 54.52L61.777 55.5028ZM74.737 55.5028C75.0468 55.6827 75.2729 55.9778 75.366 56.3238C75.4591 56.6698 75.4115 57.0385 75.2338 57.3496C75.146 57.5043 75.0283 57.6401 74.8876 57.749C74.7469 57.8579 74.586 57.9377 74.4142 57.9839C74.2424 58.0302 74.0631 58.0418 73.8868 58.0182C73.7105 57.9946 73.5406 57.9362 73.387 57.8464L71.67 56.8528V58.84C71.67 59.198 71.5278 59.5414 71.2746 59.7946C71.0214 60.0478 70.678 60.19 70.32 60.19C69.962 60.19 69.6186 60.0478 69.3654 59.7946C69.1122 59.5414 68.97 59.198 68.97 58.84V56.8528L67.2524 57.8464C67.0989 57.9362 66.929 57.9946 66.7526 58.0182C66.5763 58.0418 66.397 58.0302 66.2252 57.9839C66.0534 57.9377 65.8925 57.8579 65.7518 57.749C65.6111 57.6401 65.4935 57.5043 65.4056 57.3496C65.2281 57.0385 65.1808 56.6698 65.2738 56.3239C65.3669 55.978 65.5928 55.6829 65.9024 55.5028L67.62 54.52L65.9024 53.5264C65.5917 53.3474 65.3647 53.0522 65.2716 52.7059C65.1784 52.3596 65.2267 51.9904 65.4057 51.6796C65.5847 51.3689 65.8798 51.142 66.2262 51.0488C66.5725 50.9556 66.9417 51.0039 67.2524 51.1829L68.97 52.1764V50.2C68.97 49.842 69.1122 49.4986 69.3654 49.2454C69.6186 48.9922 69.962 48.85 70.32 48.85C70.678 48.85 71.0214 48.9922 71.2746 49.2454C71.5278 49.4986 71.67 49.842 71.67 50.2V52.1764L73.387 51.1829C73.6978 51.0039 74.067 50.9556 74.4133 51.0488C74.7596 51.142 75.0548 51.3689 75.2338 51.6796C75.4128 51.9904 75.4611 52.3596 75.3679 52.7059C75.2747 53.0522 75.0478 53.3474 74.737 53.5264L73.02 54.52L74.737 55.5028ZM87.697 55.5028C88.0068 55.6827 88.2329 55.9778 88.326 56.3238C88.4191 56.6698 88.3715 57.0385 88.1938 57.3496C88.106 57.5043 87.9883 57.6401 87.8476 57.749C87.7069 57.8579 87.546 57.9377 87.3742 57.9839C87.2024 58.0302 87.0231 58.0418 86.8468 58.0182C86.6705 57.9946 86.5006 57.9362 86.347 57.8464L84.63 56.8528V58.84C84.63 59.198 84.4878 59.5414 84.2346 59.7946C83.9814 60.0478 83.638 60.19 83.28 60.19C82.922 60.19 82.5786 60.0478 82.3254 59.7946C82.0722 59.5414 81.93 59.198 81.93 58.84V56.8528L80.2124 57.8464C80.0588 57.9362 79.889 57.9946 79.7126 58.0182C79.5363 58.0418 79.357 58.0302 79.1852 57.9839C79.0134 57.9377 78.8525 57.8579 78.7118 57.749C78.5711 57.6401 78.4535 57.5043 78.3656 57.3496C78.1881 57.0385 78.1408 56.6698 78.2338 56.3239C78.3269 55.978 78.5528 55.6829 78.8624 55.5028L80.58 54.52L78.8624 53.5264C78.5517 53.3474 78.3247 53.0522 78.2316 52.7059C78.1384 52.3596 78.1867 51.9904 78.3657 51.6796C78.5447 51.3689 78.8398 51.142 79.1862 51.0488C79.5325 50.9556 79.9017 51.0039 80.2124 51.1829L81.93 52.1764V50.2C81.93 49.842 82.0722 49.4986 82.3254 49.2454C82.5786 48.9922 82.922 48.85 83.28 48.85C83.638 48.85 83.9814 48.9922 84.2346 49.2454C84.4878 49.4986 84.63 49.842 84.63 50.2V52.1764L86.347 51.1829C86.5009 51.0942 86.6707 51.0368 86.8468 51.0138C87.0229 50.9908 87.2018 51.0027 87.3733 51.0488C87.5448 51.0949 87.7055 51.1744 87.8463 51.2826C87.9871 51.3909 88.1051 51.5258 88.1938 51.6796C88.2824 51.8335 88.3399 52.0034 88.3629 52.1794C88.3859 52.3555 88.374 52.5344 88.3279 52.7059C88.2818 52.8774 88.2023 53.0381 88.0941 53.1789C87.9858 53.3197 87.8509 53.4378 87.697 53.5264L85.98 54.52L87.697 55.5028Z"/>
</mask>
<path d="M90.2969 43.72H67.08V37.7692C67.0805 37.2741 66.9833 36.7837 66.794 36.3262C66.6047 35.8687 66.3271 35.453 65.9769 35.1029C65.6268 34.7528 65.2111 34.4752 64.7536 34.2859C64.296 34.0967 63.8057 33.9995 63.3106 34H42.7689C42.2738 33.9996 41.7835 34.0968 41.3261 34.286C40.8686 34.4753 40.4529 34.7529 40.1028 35.103C39.7528 35.4531 39.4752 35.8688 39.2859 36.3263C39.0967 36.7838 38.9995 37.2741 39 37.7692V84.2308C39.0009 85.2301 39.3982 86.1883 40.1049 86.895C40.8115 87.6016 41.7696 87.999 42.7689 88H63.3105C64.3099 87.9992 65.2682 87.6018 65.9749 86.8951C66.6816 86.1884 67.0791 85.2302 67.08 84.2308V65.32H90.2973C91.0141 65.32 91.7015 65.0352 92.2084 64.5284C92.7152 64.0215 93 63.3341 93 62.6173V46.4231C93 46.0681 92.9301 45.7166 92.7942 45.3887C92.6584 45.0607 92.4593 44.7627 92.2083 44.5117C91.9573 44.2607 91.6593 44.0616 91.3313 43.9258C91.0034 43.7899 90.6519 43.72 90.2969 43.72ZM50.34 36.2896H55.74C56.098 36.2896 56.4414 36.4318 56.6946 36.685C56.9478 36.9382 57.09 37.2816 57.09 37.6396C57.09 37.9976 56.9478 38.341 56.6946 38.5942C56.4414 38.8474 56.098 38.9896 55.74 38.9896H50.34C49.982 38.9896 49.6386 38.8474 49.3854 38.5942C49.1322 38.341 48.99 37.9976 48.99 37.6396C48.99 37.2816 49.1322 36.9382 49.3854 36.685C49.6386 36.4318 49.982 36.2896 50.34 36.2896ZM55.7395 85.7014H50.3395C49.9814 85.7014 49.6381 85.5592 49.3849 85.306C49.1317 85.0528 48.9895 84.7095 48.9895 84.3514C48.9895 83.9934 49.1317 83.65 49.3849 83.3968C49.6381 83.1436 49.9814 83.0014 50.3395 83.0014H55.7395C56.0975 83.0014 56.4409 83.1436 56.6941 83.3968C56.9472 83.65 57.0895 83.9934 57.0895 84.3514C57.0895 84.7095 56.9472 85.0528 56.6941 85.306C56.4409 85.5592 56.0975 85.7014 55.7395 85.7014ZM64.7038 80.71H41.3757V41.29H64.7038V43.72H50.3178C49.6076 43.72 48.9265 44.0021 48.4243 44.5043C47.9221 45.0065 47.64 45.6876 47.64 46.3978V62.6397C47.64 62.9917 47.7093 63.3402 47.844 63.6654C47.9787 63.9906 48.1761 64.2861 48.425 64.535C48.6739 64.7839 48.9694 64.9813 49.2946 65.116C49.6198 65.2507 49.9683 65.32 50.3203 65.32H55.2V69.6579C55.2 69.9218 55.2783 70.1799 55.4249 70.3994C55.5716 70.6189 55.78 70.7899 56.0239 70.8909C56.2678 70.9919 56.5362 71.0184 56.7951 70.9669C57.054 70.9154 57.2918 70.7882 57.4784 70.6016L62.76 65.32H64.7038V80.71ZM61.777 55.5028C62.0868 55.6827 62.3129 55.9778 62.406 56.3238C62.4991 56.6698 62.4515 57.0385 62.2738 57.3496C62.186 57.5043 62.0683 57.6401 61.9276 57.749C61.7869 57.8579 61.626 57.9377 61.4542 57.9839C61.2824 58.0302 61.1031 58.0418 60.9268 58.0182C60.7505 57.9946 60.5806 57.9362 60.427 57.8464L58.71 56.8528V58.84C58.71 59.198 58.5678 59.5414 58.3146 59.7946C58.0614 60.0478 57.718 60.19 57.36 60.19C57.002 60.19 56.6586 60.0478 56.4054 59.7946C56.1522 59.5414 56.01 59.198 56.01 58.84V56.8528L54.2924 57.8464C54.1389 57.9362 53.969 57.9946 53.7926 58.0182C53.6163 58.0418 53.437 58.0302 53.2652 57.9839C53.0934 57.9377 52.9325 57.8579 52.7918 57.749C52.6511 57.6401 52.5335 57.5043 52.4456 57.3496C52.2681 57.0385 52.2208 56.6698 52.3138 56.3239C52.4069 55.978 52.6328 55.6829 52.9424 55.5028L54.66 54.52L52.9424 53.5264C52.6317 53.3474 52.4047 53.0522 52.3116 52.7059C52.2184 52.3596 52.2667 51.9904 52.4457 51.6796C52.6247 51.3689 52.9198 51.142 53.2662 51.0488C53.6125 50.9556 53.9817 51.0039 54.2924 51.1829L56.01 52.1764V50.2C56.01 49.842 56.1522 49.4986 56.4054 49.2454C56.6586 48.9922 57.002 48.85 57.36 48.85C57.718 48.85 58.0614 48.9922 58.3146 49.2454C58.5678 49.4986 58.71 49.842 58.71 50.2V52.1764L60.427 51.1829C60.7378 51.0039 61.107 50.9556 61.4533 51.0488C61.7996 51.142 62.0948 51.3689 62.2738 51.6796C62.4528 51.9904 62.5011 52.3596 62.4079 52.7059C62.3147 53.0522 62.0878 53.3474 61.777 53.5264L60.06 54.52L61.777 55.5028ZM74.737 55.5028C75.0468 55.6827 75.2729 55.9778 75.366 56.3238C75.4591 56.6698 75.4115 57.0385 75.2338 57.3496C75.146 57.5043 75.0283 57.6401 74.8876 57.749C74.7469 57.8579 74.586 57.9377 74.4142 57.9839C74.2424 58.0302 74.0631 58.0418 73.8868 58.0182C73.7105 57.9946 73.5406 57.9362 73.387 57.8464L71.67 56.8528V58.84C71.67 59.198 71.5278 59.5414 71.2746 59.7946C71.0214 60.0478 70.678 60.19 70.32 60.19C69.962 60.19 69.6186 60.0478 69.3654 59.7946C69.1122 59.5414 68.97 59.198 68.97 58.84V56.8528L67.2524 57.8464C67.0989 57.9362 66.929 57.9946 66.7526 58.0182C66.5763 58.0418 66.397 58.0302 66.2252 57.9839C66.0534 57.9377 65.8925 57.8579 65.7518 57.749C65.6111 57.6401 65.4935 57.5043 65.4056 57.3496C65.2281 57.0385 65.1808 56.6698 65.2738 56.3239C65.3669 55.978 65.5928 55.6829 65.9024 55.5028L67.62 54.52L65.9024 53.5264C65.5917 53.3474 65.3647 53.0522 65.2716 52.7059C65.1784 52.3596 65.2267 51.9904 65.4057 51.6796C65.5847 51.3689 65.8798 51.142 66.2262 51.0488C66.5725 50.9556 66.9417 51.0039 67.2524 51.1829L68.97 52.1764V50.2C68.97 49.842 69.1122 49.4986 69.3654 49.2454C69.6186 48.9922 69.962 48.85 70.32 48.85C70.678 48.85 71.0214 48.9922 71.2746 49.2454C71.5278 49.4986 71.67 49.842 71.67 50.2V52.1764L73.387 51.1829C73.6978 51.0039 74.067 50.9556 74.4133 51.0488C74.7596 51.142 75.0548 51.3689 75.2338 51.6796C75.4128 51.9904 75.4611 52.3596 75.3679 52.7059C75.2747 53.0522 75.0478 53.3474 74.737 53.5264L73.02 54.52L74.737 55.5028ZM87.697 55.5028C88.0068 55.6827 88.2329 55.9778 88.326 56.3238C88.4191 56.6698 88.3715 57.0385 88.1938 57.3496C88.106 57.5043 87.9883 57.6401 87.8476 57.749C87.7069 57.8579 87.546 57.9377 87.3742 57.9839C87.2024 58.0302 87.0231 58.0418 86.8468 58.0182C86.6705 57.9946 86.5006 57.9362 86.347 57.8464L84.63 56.8528V58.84C84.63 59.198 84.4878 59.5414 84.2346 59.7946C83.9814 60.0478 83.638 60.19 83.28 60.19C82.922 60.19 82.5786 60.0478 82.3254 59.7946C82.0722 59.5414 81.93 59.198 81.93 58.84V56.8528L80.2124 57.8464C80.0588 57.9362 79.889 57.9946 79.7126 58.0182C79.5363 58.0418 79.357 58.0302 79.1852 57.9839C79.0134 57.9377 78.8525 57.8579 78.7118 57.749C78.5711 57.6401 78.4535 57.5043 78.3656 57.3496C78.1881 57.0385 78.1408 56.6698 78.2338 56.3239C78.3269 55.978 78.5528 55.6829 78.8624 55.5028L80.58 54.52L78.8624 53.5264C78.5517 53.3474 78.3247 53.0522 78.2316 52.7059C78.1384 52.3596 78.1867 51.9904 78.3657 51.6796C78.5447 51.3689 78.8398 51.142 79.1862 51.0488C79.5325 50.9556 79.9017 51.0039 80.2124 51.1829L81.93 52.1764V50.2C81.93 49.842 82.0722 49.4986 82.3254 49.2454C82.5786 48.9922 82.922 48.85 83.28 48.85C83.638 48.85 83.9814 48.9922 84.2346 49.2454C84.4878 49.4986 84.63 49.842 84.63 50.2V52.1764L86.347 51.1829C86.5009 51.0942 86.6707 51.0368 86.8468 51.0138C87.0229 50.9908 87.2018 51.0027 87.3733 51.0488C87.5448 51.0949 87.7055 51.1744 87.8463 51.2826C87.9871 51.3909 88.1051 51.5258 88.1938 51.6796C88.2824 51.8335 88.3399 52.0034 88.3629 52.1794C88.3859 52.3555 88.374 52.5344 88.3279 52.7059C88.2818 52.8774 88.2023 53.0381 88.0941 53.1789C87.9858 53.3197 87.8509 53.4378 87.697 53.5264L85.98 54.52L87.697 55.5028Z" stroke="#1C2A16" stroke-width="4" mask="url(#path-2-outside-1_815_2)"/>
</svg>
